<?xml version="1.0" encoding="UTF-8"?>
<svg id="Layer_2" xmlns="http://www.w3.org/2000/svg" viewBox="0 0 780.12 912.96">
  <defs>
    <style>
      .cls-1 {
        fill: #f1b82d;
      }

      .cls-1, .cls-2, .cls-3, .cls-4 {
        stroke: #020202;
        stroke-miterlimit: 10;
      }

      .cls-3 {
        fill: #fff;
      }

      .cls-4 {
        fill: #ffb000;
      }
    </style>
  </defs>
  <path class="cls-2" d="M158.79,228.13c5.57,4.75,9.74,8.3,15.15,12.92,1.19-7.59,1.81-13.67,3.15-19.59,3.83-17,7.38-34.1,12.24-50.81,1.95-6.72.28-10.43-4.73-13.73-17.78-11.71-24.2-28.99-24.87-49.38-1.07-32.71,10.98-60.12,33.74-82.92,14.12-14.14,31.94-20.39,51.68-22.99,20.36-2.68,39.11.61,55.41,12.72,7.63,5.67,13.66,13.84,19.37,21.63,3.2,4.37,5.36,6.66,10.97,4.32,5.5-2.29,11.38-4.5,17.23-4.94,18.46-1.38,36.99-2.7,55.48-2.52,16.51.16,32.82,3.24,48.74,8.13,1.66.51,5.42-2.38,6.7-4.58C474.07,10.52,497.81-.5,526.21.57c35.85,1.35,63.31,18.25,80.32,50.78,12.74,24.37,17.47,49.48,10.21,76.61-3.37,12.57-11.06,21.42-21.01,28.5-5.93,4.22-7.46,8.21-4.81,15.05,8.06,20.72,12.18,42.35,13.53,64.53.06,1.04.6,2.05,1.36,4.55,4.97-4.02,9.23-7.46,14.86-12.02,3.94,17.33-8.34,31.03-7.22,46.89,14.22-2,23.18-11.37,31.5-21.96l2.12,1.32c-6.66,13.57-13.29,27.08-20.17,41.12q3.48,3.74,18.61-2.35c-13.86,22.9-29.35,44.87-50.21,61.81-20.76,16.86-43.31,31.52-65.51,47.47,6.85,0,14.37,0,21.89,0,15.17,0,30.33-.2,45.5.07,19.3.35,38.6,1.22,57.9,1.63,11.87.25,13.37,1.73,15.47,13.59.48,2.69,3.65,6.54,6.12,7.01,31.73,6,54.35,23.74,68.3,52.51,20.06,41.37,8.8,78.55-20.64,109.67-14,14.8-34.62,20.31-54.06,25.29l-.44-1.33c11.43-4.75,22.87-9.5,34.3-14.24l-.53-1.9c-10.04,1.51-19.8,2.98-31.65,4.76v91.99c28.84,7.47,56.69,18.58,78.83,40.43,26.97,26.63,34.46,58.83,24.9,95.02-11.82,44.78-41.39,72.03-85.77,82.92-16.95,4.16-34.4,1.88-51.12-3.12-50.23-15.01-95.38-40.3-138.65-69.29-2.37-1.59-4.68-3.54-6.42-5.78-13.7-17.63-30.39-9.61-47.3-6.73-27.78,4.73-55.81,6.55-84.13,3.35-18.26-2.06-36.51-2.98-53.96-9.71-2.42-.94-6.89,2.03-9.82,4.04-15.82,10.87-30.99,22.75-47.23,32.92-36.57,22.89-75.13,41.73-117.04,52.89-52.57,14.01-109.25-20.19-125.91-68.48-9.97-28.9-11.67-56.72,2.56-84.21,13.52-26.12,36.75-41.42,62.74-52.81,11.21-4.92,23.15-8.17,34.47-12.08v-91.25c-11.8-1.81-21.88-3.36-32.21-4.94l-.57,2.08,28.87,11.4c7.54,3.69,9.5,3.73-1.48,3.4-11.68-5.17-23.98-9.28-34.92-15.71-25.04-14.73-36.97-38.66-41.55-66.25-7.85-47.31,28.78-98.06,76.97-104.83,2.32-.33,5.56-3.81,6-6.26,2.4-13.31,3.22-14.11,16.44-14.35,23.93-.43,47.85-1.25,71.78-1.66,14.58-.25,29.17-.04,43.76-.04,3.09,0,6.18,0,9.94-1.25-49.75-24.73-88.4-60.9-117.74-108.12,7.6-.66,13.03,9.8,19.89,3.28-7.12-14.5-13.86-28.23-20.64-42.04l2.13-1.33c8.33,10.63,17.26,20.05,31.79,22.01.18-15.81-10.62-29.46-7.75-47.31ZM113.88,422.92c60.01,5.05,86.92,46.95,91.05,84.52,2.28,20.73-5.89,39.41-17.18,55.84-17.9,26.05-44.66,36.3-74.81,36.15v103.55c9.32.72,17.12,1.67,24.93,1.86,29.99.73,59.99,1.56,89.99,1.68,19,.08,38.01-1.49,57.02-1.48,20.16.01,40.32,1.11,60.49,1.56,9.67.22,19.35.04,29.03.04,16.74,0,33.47,0,50.21,0,35.41,0,70.82.22,106.23-.07,37.23-.31,74.45-1.01,111.68-1.76,7.77-.15,15.52-1.22,24.38-1.96v-102.85c-67.19-2.43-87.85-48.68-92-82.85-2.7-22.26,6.98-41.66,20.06-58.88,17.63-23.21,42.72-32.73,70.73-35.17,1.8-12.21.62-14.63-7.35-14.77-34.91-.65-69.82-1.43-104.74-1.66-15.08-.1-30.16,1.27-45.26,1.57-36.2.72-72.4,1.24-108.61,1.73-3.94.05-7.9-.98-11.85-.97-24.94.06-49.88.71-74.81.31-23.57-.37-47.12-2.15-70.7-2.59-13.04-.24-26.11,1.35-39.18,1.49-25.74.26-51.48.07-77.22.08-12.85,0-13.72,1.02-12.09,14.62ZM144.07,303.3c9.56,12.48,17.42,23.6,26.17,33.98,15.99,18.97,36.4,32.57,57.72,44.65,14.16,8.03,28.41,17.14,43.83,21.35,14.62,3.99,30.81,2.69,46.32,2.86,24.26.26,48.53-.16,72.79-.39,37.78-.35,75.57-.67,113.35-1.29,4.15-.07,8.64-1.31,12.35-3.21,34.07-17.52,67.89-35.6,93.73-64.88,9.35-10.6,17.08-22.63,25.72-33.85l-1.28-1.7c-24.94,9.49-47.92,8.91-67.65-9.42,3.69-1.86,7.3-2.34,10.86-3.1,8.35-1.77,16.94-2.93,24.94-5.74,6.64-2.34,7.4-8.21,4.84-15.18-17.49,11.45-35.3,19.08-56.05,16.11,1.06-2.32,2.42-3.77,4.04-4.78,10.66-6.62,21.66-12.73,32-19.81,14.26-9.75,17.99-36.83,7.41-51.38-9.97,4.92-20.2,9.03-33.09,4.39,2.85-3.11,5.02-5.25,6.94-7.6,5.26-6.44,10.69-12.77,15.52-19.52,3.83-5.35,4.83-10.86,1.69-17.71-8.76-19.12-18.04-37.7-31.55-54.15-23.35-28.44-51.62-49.53-87.36-61.93-14.13,25.7-16.74,55.51-29.51,81.86-2.04-2.63-3.34-5.15-3.75-7.8-4.15-27.14-8.08-54.31-12.34-81.44-.37-2.34-2.69-4.36-4.1-6.53-1.77,1.82-3.62,3.57-5.26,5.49-.5.58-.45,1.64-.61,2.48-5.82,30.62-11.57,61.26-17.57,91.84-.4,2.06-2.66,3.76-4.06,5.63-1.53-1.42-3.99-2.59-4.44-4.29-2.12-8.01-3.93-16.12-5.42-24.28-4.21-23.07-8.08-46.21-12.47-69.24-.53-2.79-3.4-5.13-5.19-7.68-1.58,2.89-4.1,5.63-4.6,8.7-3.55,22.02-6.59,44.12-10,66.17-1.16,7.47-3.05,14.83-4.54,22.26l-2.13.23c-12.11-26.89-14.47-57.44-29.11-83.62-5.76,2.34-10.52,4.26-15.27,6.22-1.06.44-2.09.97-3.13,1.47-43.2,20.73-73.67,53.57-95.19,96.21-8.08,16-7.51,28.45,3.84,41.23,3.26,3.67,6.92,6.98,10.28,10.57,1.45,1.55,2.62,3.36,4.38,5.65-12.78,4.75-23.21-.4-35.11-5.4-1.08,9.69-2.37,18.11-2.85,26.58-.33,5.84-.7,11.4,4.04,16.88,10.79,12.46,23.71,21.38,38.64,27.83,2.74,1.18,5.06,3.35,7.65,4.88l-.36,1.72c-21.24,2.32-39.74-5.97-57.64-17.22-1.7,12.48,3.12,17.42,16.96,19.2,8.14,1.05,16.24,2.42,24.36,3.65-8.68,11.07-19.76,15.31-31.42,15.87-11.5.55-23.14-1.62-37.35-2.81ZM581.27,709.55c-30.39.94-60,1.77-89.61,2.93-2.21.09-5.16,2.02-6.36,3.97-4.64,7.54-9.62,15.08-12.81,23.27-7.7,19.74-7.89,40.36-5.65,61.14-1.29-15.16-3.73-30.48.32-45.4,3.97-14.61,9.63-28.76,14.35-42.53h-185.56c16.59,32.14,24.29,75.49,16.57,86.87,0-10.26-.16-21.53.04-32.78.32-18.35-5.99-34.42-17.16-48.53-2.47-3.12-7.29-5.99-11.16-6.16-25.35-1.1-50.74-1.44-76.11-2-3.08-.07-6.16,0-9.63,0,.55,11.13,3.82,21.23-.6,30.63-9.01-9.03-17.19-17.66-25.85-25.8-7.86-7.39-22.62-9.16-33.94-4.43,37.89,15.11,54.57,44.83,56.31,83.29,1.66,36.81-2.92,72.11-37.63,95.82,3.76.93,7.03,1.56,9.94.8,4.96-1.3,9.56-3.95,14.53-5.19,20.33-5.08,38.54-13.39,51.56-30.78,15.78-21.06,22.42-44.01,17.57-70.42-2.67-14.53-3.07-29.48-4.5-44.24l2.67-1.45c29.39,23.69,37.95,55.24,30.55,94.74,5.98-4.59,9.35-7.12,12.66-9.73,6.24-4.91,12.15-7.83,21.09-5.31,18.17,5.12,36.57,9.21,55.93,8.37,31.54-1.37,63.62,3.34,94.26-7.4,12.01-4.21,20.33-.67,28.38,7.5,1.89,1.92,4.7,2.93,5.83,3.6,1.54-16.86.9-34.33,5.22-50.47,4.39-16.43,13.37-31.79,31.72-41.93-1.49,14.03-2.52,25.66-3.99,37.24-2.37,18.6-5.12,37.23,2.96,55.16,8.56,18.99,18.58,36.95,39.46,45.17,13.75,5.41,27.6,10.6,41.54,15.51,2.44.86,5.54-.14,8.33-.28-34.13-24.54-38.77-59.58-37.23-96.19,1.63-38.75,18.29-68.73,56.03-84.79-11.93-.49-24.01-4.44-33.95,5.61-8.31,8.4-16.68,16.75-26.08,26.17v-31.97ZM192.11,806.65c-1.19-12.64-1.04-21.73-3.04-30.31-7.03-30.08-22.89-53.01-53.98-62.45-18.11-5.5-36.4-6.58-55.28-3.77-41.94,6.22-74.71,42.96-76.08,86.25-.61,19.12,3.85,37.22,12.33,53.99,9.46,18.71,22.29,34.59,42.83,42.77,26.92,10.71,54.13,9.7,80.56.24,22.93-8.22,39.85-24.39,46.15-48.83,3.48-13.49,4.79-27.54,6.51-37.89ZM588,802.1c.82,8.86,1.53,17.72,2.48,26.57,3.66,33.82,25.96,59,58.8,67.45,16.61,4.27,33.26,5.45,50.15,3.11,19.77-2.74,36.89-11.17,49.66-26.59,13.95-16.85,21.93-36.33,25.66-58.21,6.39-37.51-12.44-77.36-47.2-95.27-23.5-12.11-48.33-13.31-73.73-7.55-17.41,3.95-33.11,10.8-44.58,25.46-15.01,19.17-21.87,40.74-21.25,65.05ZM110.27,594.3c5.11-.57,10.21-1.27,15.34-1.7,26.02-2.17,46.86-13.1,60.43-36.02,3.49-5.89,7.18-11.96,9.03-18.45,2.89-10.09,7.13-21,5.78-30.88-4.33-31.73-19.34-56.77-49.77-71.39-32.81-15.76-68.67-8.22-93.12,15.28-23.6,22.68-34.38,51.37-27.85,84.45,2.84,14.39,8.53,27.92,20.43,37.98,17.31,14.63,37.46,20.34,59.73,20.72ZM669.19,594.28c6.83-.74,13.69-1.24,20.48-2.26,19.9-3.01,36.88-12.16,48.15-28.64,16.98-24.85,17.39-51.96,6.44-79.54-14.89-37.52-54.56-61.02-93.23-55.09-42.65,6.54-77.68,50.7-71.03,91.66,2.96,18.23,9.51,35.54,22.07,48.53,17.85,18.46,41.19,26.05,67.12,25.34ZM319.53,43.7c-.49-1.44-.75-2.53-1.22-3.52-12.36-25.96-34.76-35.95-61.59-36.03-28.51-.08-53.01,9.99-70.94,33.78-17.65,23.42-25.3,49.53-22.08,78.4,2.08,18.69,11.31,33.37,30.52,40.97,3.9-7.39,7.94-15.24,12.18-22.98,2.43-4.44,4.28-8.08-.46-12.83-2.71-2.71-3.77-7.68-4.37-11.8-3.45-23.65,14.67-54.46,44.36-60.48,14.38-2.91,28.75-5.42,38.62,9.39,11.5-4.9,22.81-9.72,35-14.91ZM492.18,57.31c8.87-4.15,15.54-10.04,21.78-9.61,12.7.88,25.52,4.16,37.55,8.5,5.56,2,9.62,8.6,13.94,13.49,14.98,16.9,16.85,35.6,5.97,55.24-.66,1.2-.8,3.29-.21,4.48,4.74,9.6,9.71,19.09,14.17,27.75,16.57-6.61,25.97-17.98,29.12-33.97,7.09-35.95-2.8-67.78-27.81-93.47-26.06-26.77-59.07-31.97-93.65-19.89-15.45,5.4-27.56,17.07-32.8,33.91,11.98,5.1,23.3,9.91,31.93,13.58ZM86.62,702.28c16.55,5.12,22.89,3.38,23.46-5.85-7.99,1.99-15.73,3.92-23.46,5.85ZM669.18,696.22c1.62,9.27,10.59,11.43,25.6,6.58-9.2-2.37-16.93-4.35-25.6-6.58Z"/>
  <path class="cls-3" d="M112.93,422.92c-1.63-13.6-.76-14.62,12.09-14.62,25.74,0,51.48.18,77.22-.08,13.06-.13,26.13-1.73,39.18-1.49,23.57.44,47.12,2.22,70.7,2.59,24.93.39,49.87-.25,74.81-.31,3.95,0,7.9,1.02,11.85.97,36.2-.49,72.41-1.01,108.61-1.73,15.09-.3,30.17-1.66,45.26-1.57,34.91.23,69.82,1.01,104.74,1.66,7.98.15,9.15,2.57,7.35,14.77-28,2.44-53.1,11.96-70.73,35.17-13.07,17.22-22.76,36.62-20.06,58.88,4.15,34.17,24.81,80.43,92,82.85v102.85c-8.86.74-16.61,1.81-24.38,1.96-37.22.74-74.45,1.45-111.68,1.76-35.41.29-70.82.07-106.23.07-16.74,0-33.47,0-50.21,0-9.68,0-19.36.17-29.03-.04-20.17-.45-40.33-1.55-60.49-1.56-19.01-.01-38.01,1.55-57.02,1.48-30-.12-59.99-.95-89.99-1.68-7.81-.19-15.61-1.14-24.93-1.86v-103.55c30.15.15,56.91-10.1,74.81-36.15,11.29-16.43,19.46-35.11,17.18-55.84-4.13-37.58-31.04-79.47-91.05-84.52Z"/>
  <path class="cls-1" d="M144.07,303.3c14.22,1.2,25.85,3.36,37.35,2.81,11.66-.56,22.73-4.81,31.42-15.87-8.12-1.23-16.22-2.6-24.36-3.65-13.84-1.78-18.66-6.72-16.96-19.2,17.47,10.98,35.52,19.14,56.12,17.37.34-.81.67-1.61,1.01-2.42-2.25-1.46-4.34-3.28-6.77-4.33-14.93-6.46-27.85-15.38-38.64-27.83-4.75-5.48-4.37-11.04-4.04-16.88.48-8.47,1.76-16.89,2.85-26.58,11.9,5,22.32,10.15,35.11,5.4-1.76-2.29-2.93-4.1-4.38-5.65-3.36-3.58-7.02-6.9-10.28-10.57-11.35-12.78-11.92-25.23-3.84-41.23,21.52-42.64,51.99-75.48,95.19-96.21,1.04-.5,2.07-1.03,3.13-1.47,4.75-1.95,9.51-3.87,15.27-6.22,14.34,25.64,16.91,55.49,28.39,81.98,1.04.02,2.08.04,3.13.06,1.44-6.97,3.18-13.89,4.26-20.91,3.41-22.04,6.45-44.15,10-66.17.49-3.07,3.01-5.81,4.6-8.7,1.79,2.55,4.65,4.89,5.19,7.68,4.39,23.04,8.26,46.17,12.47,69.24,1.49,8.16,3.3,16.27,5.42,24.28.45,1.7,2.91,2.88,4.44,4.29,1.4-1.87,3.65-3.57,4.06-5.63,6-30.59,11.75-61.22,17.57-91.84.16-.85.12-1.9.61-2.48,1.64-1.92,3.49-3.68,5.26-5.49,1.41,2.17,3.73,4.2,4.1,6.53,4.26,27.12,8.19,54.3,12.34,81.44.41,2.65,1.71,5.17,3.75,7.8,12.77-26.36,15.38-56.17,29.51-81.86,35.74,12.4,64.01,33.49,87.36,61.93,13.51,16.45,22.78,35.03,31.55,54.15,3.14,6.86,2.14,12.36-1.69,17.71-4.83,6.75-10.26,13.08-15.52,19.52-1.92,2.35-4.09,4.5-6.94,7.6,12.89,4.64,23.12.53,33.09-4.39,10.58,14.55,6.85,41.63-7.41,51.38-10.34,7.07-21.34,13.19-32,19.81-1.63,1.01-2.98,2.45-4.04,4.78,20.75,2.96,38.56-4.66,56.05-16.11,2.57,6.97,1.8,12.84-4.84,15.18-7.99,2.82-16.58,3.98-24.94,5.74-3.56.75-7.18,1.23-10.86,3.1,19.36,18,41.86,18.88,66.26,9.94.33,1.12.67,2.25,1,3.37-7.98,10.59-15.3,21.75-24.05,31.66-25.84,29.27-59.66,47.35-93.73,64.88-3.71,1.91-8.2,3.15-12.35,3.21-37.78.62-75.56.94-113.35,1.29-24.26.22-48.53.64-72.79.39-15.51-.16-31.7,1.13-46.32-2.86-15.42-4.2-29.67-13.32-43.83-21.35-21.32-12.08-41.73-25.69-57.72-44.65-8.75-10.37-16.61-21.5-26.17-33.98ZM512.08,306.69c0-3.75.69-7.66-.11-11.23-5.27-23.61-16.43-43.82-35.23-59.48-34.18-28.46-73.73-36.88-116.41-28.36-28.13,5.62-52.79,19.67-71.09,42.43-19.64,24.43-28.58,52.11-17.65,82.9,12.35,34.8,39.69,52.67,74.42,59.35,14.52,2.79,29.84,1.14,44.75,2.27,19.46,1.47,38.58.26,57.21-5.61,33.82-10.67,65.69-41.37,64.11-82.26ZM281.05,182.44c-16-.01-29.05,11.84-29.27,26.59-.24,16.25,10.65,27.9,26.88,27.23,12.89-.53,28-10.35,27.25-26.08-.68-14.26-12.17-27.73-24.86-27.74ZM499.02,182.44c-12.93-.03-24.48,13.08-25.17,27.41-.78,15.95,13.3,25.47,26.9,26.37,16.34,1.08,27.25-10.45,27.21-26.86-.03-14.7-13.13-26.88-28.94-26.92Z"/>
  <path class="cls-1" d="M581.27,709.55v31.97c9.4-9.43,17.77-17.77,26.08-26.17,9.95-10.05,22.03-6.1,33.95-5.61-37.74,16.06-54.39,46.04-56.03,84.79-1.54,36.61,3.1,71.65,37.23,96.19-2.79.14-5.89,1.14-8.33.28-13.94-4.91-27.79-10.1-41.54-15.51-20.88-8.22-30.9-26.18-39.46-45.17-8.08-17.93-5.33-36.57-2.96-55.16,1.47-11.57,2.5-23.21,3.99-37.24-18.35,10.14-27.32,25.5-31.72,41.93-4.32,16.14-3.68,33.61-5.22,50.47-1.13-.67-3.94-1.68-5.83-3.6-8.05-8.17-16.37-11.71-28.38-7.5-30.64,10.74-62.72,6.03-94.26,7.4-19.36.84-37.76-3.25-55.93-8.37-8.94-2.52-14.85.4-21.09,5.31-3.31,2.61-6.68,5.14-12.66,9.73,7.33-39.14-1.01-70.46-29.74-94.08-1.15.32-2.31.65-3.46.97,1.42,14.7,1.82,29.59,4.48,44.06,4.86,26.42-1.79,49.36-17.57,70.42-13.02,17.39-31.23,25.7-51.56,30.78-4.96,1.24-9.57,3.89-14.53,5.19-2.91.76-6.18.14-9.94-.8,34.71-23.71,39.3-59.01,37.63-95.82-1.74-38.46-18.42-68.19-56.31-83.29,11.32-4.73,26.08-2.96,33.94,4.43,8.65,8.13,16.84,16.76,25.85,25.8,4.41-9.4,1.15-19.51.6-30.63,3.46,0,6.55-.06,9.63,0,25.37.56,50.76.9,76.11,2,3.86.17,8.68,3.03,11.16,6.16,11.17,14.11,17.48,30.18,17.16,48.53-.2,11.26-.04,22.52-.04,32.78,7.72-11.38.02-54.73-16.57-86.87h185.56c-4.72,13.77-10.38,27.92-14.35,42.53-4.05,14.93-1.61,30.25-.32,45.4-2.24-20.78-2.05-41.4,5.65-61.14,3.19-8.19,8.17-15.72,12.81-23.27,1.2-1.94,4.14-3.88,6.36-3.97,29.6-1.16,59.22-1.99,89.61-2.93Z"/>
  <path class="cls-3" d="M192.11,806.65c-1.72,10.35-3.04,24.4-6.51,37.89-6.3,24.44-23.22,40.61-46.15,48.83-26.43,9.47-53.64,10.48-80.56-.24-20.54-8.17-33.37-24.06-42.83-42.77-8.48-16.77-12.93-34.87-12.33-53.99,1.37-43.29,34.14-80.03,76.08-86.25,18.89-2.8,37.17-1.72,55.28,3.77,31.09,9.44,46.95,32.37,53.98,62.45,2,8.58,1.85,17.66,3.04,30.31Z"/>
  <path class="cls-3" d="M588,802.1c-.61-24.31,6.25-45.87,21.25-65.05,11.47-14.66,27.17-21.51,44.58-25.46,25.4-5.76,50.22-4.57,73.73,7.55,34.76,17.92,53.59,57.76,47.2,95.27-3.73,21.88-11.71,41.36-25.66,58.21-12.77,15.43-29.89,23.85-49.66,26.59-16.89,2.34-33.54,1.16-50.15-3.11-32.84-8.45-55.15-33.63-58.8-67.45-.96-8.84-1.66-17.71-2.48-26.57Z"/>
  <path class="cls-1" d="M110.27,594.3c-22.27-.38-42.42-6.1-59.73-20.72-11.9-10.05-17.59-23.59-20.43-37.98-6.53-33.08,4.25-61.77,27.85-84.45,24.45-23.5,60.31-31.04,93.12-15.28,30.43,14.62,45.44,39.66,49.77,71.39,1.35,9.88-2.9,20.79-5.78,30.88-1.85,6.49-5.55,12.56-9.03,18.45-13.57,22.92-34.41,33.85-60.43,36.02-5.12.43-10.23,1.13-15.34,1.7Z"/>
  <path class="cls-1" d="M669.19,594.28c-25.93.7-49.27-6.89-67.12-25.34-12.56-12.99-19.11-30.3-22.07-48.53-6.65-40.96,28.38-85.12,71.03-91.66,38.67-5.93,78.33,17.56,93.23,55.09,10.95,27.58,10.54,54.69-6.44,79.54-11.26,16.48-28.24,25.63-48.15,28.64-6.79,1.03-13.65,1.52-20.48,2.26Z"/>
  <path class="cls-1" d="M319.53,43.7c-12.18,5.19-23.5,10.01-35,14.91-9.87-14.81-24.24-12.3-38.62-9.39-29.69,6.01-47.81,36.82-44.36,60.48.6,4.13,1.66,9.09,4.37,11.8,4.74,4.75,2.9,8.39.46,12.83-4.24,7.74-8.27,15.58-12.18,22.98-19.21-7.6-28.44-22.28-30.52-40.97-3.22-28.87,4.43-54.98,22.08-78.4,17.93-23.79,42.43-33.85,70.94-33.78,26.83.07,49.23,10.07,61.59,36.03.47.99.73,2.08,1.22,3.52Z"/>
  <path class="cls-4" d="M492.18,57.31c-8.63-3.67-19.96-8.49-31.93-13.58,5.24-16.84,17.35-28.51,32.8-33.91,34.58-12.08,67.59-6.88,93.65,19.89,25.01,25.7,34.9,57.52,27.81,93.47-3.15,15.99-12.55,27.36-29.12,33.97-4.46-8.67-9.43-18.15-14.17-27.75-.59-1.19-.45-3.28.21-4.48,10.88-19.64,9.01-38.34-5.97-55.24-4.33-4.88-8.39-11.48-13.94-13.49-12.03-4.34-24.86-7.62-37.55-8.5-6.24-.43-12.91,5.46-21.78,9.61Z"/>
  <path class="cls-3" d="M86.62,702.28c7.73-1.93,15.47-3.86,23.46-5.85-.57,9.23-6.91,10.97-23.46,5.85Z"/>
  <path class="cls-3" d="M669.18,696.22c8.68,2.23,16.4,4.22,25.6,6.58-15.01,4.85-23.98,2.68-25.6-6.58Z"/>
  <path class="cls-2" d="M512.08,306.69c1.57,40.88-30.3,71.59-64.11,82.26-18.63,5.88-37.75,7.09-57.21,5.61-14.9-1.13-30.23.52-44.75-2.27-34.72-6.68-62.07-24.55-74.42-59.35-10.93-30.79-1.99-58.46,17.65-82.9,18.3-22.76,42.96-36.81,71.09-42.43,42.68-8.52,82.23-.1,116.41,28.36,18.8,15.66,29.96,35.87,35.23,59.48.8,3.57.11,7.48.11,11.23ZM389.93,207.98c-7.7.79-15.45,1.22-23.09,2.42-34.95,5.47-62.86,22.35-82.41,52.11-18.71,28.48-18.89,62.82.64,89.78,17.58,24.25,42.85,35.86,72.2,38.27,13.33,1.09,26.83.47,40.25.16,12.47-.28,25.1-.07,37.35-2.03,24.52-3.94,45.33-15.86,59.61-36.18,23.63-33.61,18.5-72.79-9.38-103.48-25.16-27.7-57.13-41.69-95.17-41.05Z"/>
  <path class="cls-2" d="M281.05,182.44c12.7.01,24.18,13.48,24.86,27.74.75,15.73-14.36,25.55-27.25,26.08-16.23.67-27.13-10.99-26.88-27.23.22-14.75,13.27-26.6,29.27-26.59Z"/>
  <path class="cls-2" d="M499.02,182.44c15.81.04,28.91,12.22,28.94,26.92.04,16.41-10.87,27.94-27.21,26.86-13.6-.9-27.68-10.42-26.9-26.37.7-14.33,12.24-27.44,25.17-27.41Z"/>
  <path class="cls-3" d="M389.93,207.98c38.05-.64,70.01,13.35,95.17,41.05,27.88,30.69,33.01,69.87,9.38,103.48-14.28,20.31-35.09,32.24-59.61,36.18-12.24,1.97-24.88,1.75-37.35,2.03-13.41.3-26.91.93-40.25-.16-29.35-2.41-54.62-14.02-72.2-38.27-19.54-26.96-19.36-61.3-.64-89.78,19.55-29.75,47.46-46.64,82.41-52.11,7.63-1.19,15.39-1.63,23.09-2.42ZM462.02,309.24c-.27.06-.73.06-.78.2-.45,1.29-.77,2.63-1.24,3.92-3.08,8.56-6.97,16.97-16.51,19.48-19.99,5.27-36.7,3.47-49.08-19.88-5.81-10.96-5.1-12.31,4.8-19.26,10.82-7.59,20.06-16.94,24.25-29.97-12.99-10.08-58.01-9.2-67.2,1.12,5.77,12.88,14.7,23.17,26.87,30.4,5.07,3.01,7.59,7.33,5.21,12.09-4.84,9.68-10.09,19.22-20.65,24.54-17.68,8.91-41.16.99-47.46-16.51-.75-2.08-1.23-4.26-1.83-6.39-2.3,8.98,3.21,20.85,11.25,24.51,25.46,11.61,45.61,4.87,59.56-19.47,6.04,6.52,10.4,13.46,16.66,17.36,6.46,4.03,14.7,6.71,22.28,7.01,7.39.29,15.34-2.2,22.29-5.22,8.26-3.59,13.67-16.54,11.57-23.94Z"/>
  <path class="cls-2" d="M462.02,309.24c2.09,7.4-3.31,20.35-11.57,23.94-6.95,3.02-14.9,5.52-22.29,5.22-7.58-.3-15.82-2.98-22.28-7.01-6.26-3.9-10.62-10.84-16.66-17.36-13.95,24.34-34.1,31.08-59.56,19.47-8.04-3.67-13.55-15.53-11.25-24.51.6,2.13,1.08,4.31,1.83,6.39,6.3,17.5,29.78,25.41,47.46,16.51,10.55-5.32,15.81-14.85,20.65-24.54,2.38-4.76-.14-9.08-5.21-12.09-12.17-7.23-21.1-17.52-26.87-30.4,9.2-10.33,54.21-11.2,67.2-1.12-4.2,13.03-13.43,22.38-24.25,29.97-9.9,6.94-10.61,8.3-4.8,19.26,12.37,23.34,29.09,25.14,49.08,19.88,9.54-2.51,13.43-10.93,16.51-19.48.46-1.29.79-2.63,1.24-3.92.05-.14.51-.14.78-.2Z"/>
  <path d="M290.28,491.41c0,6.75-5.51,12.35-12.35,12.35h-6.94l19.29,22.99v1.42h-12.16l-20.52-24.42h-23.37c-.76,0-1.42-.1-2.09-.19v24.61h-10.26v-68.31h56.05c6.84,0,12.35,5.6,12.35,12.35v19.19ZM277.93,493.5c1.14,0,2.09-.95,2.09-2.09v-19.19c0-1.14-.95-2.09-2.09-2.09h-43.7c-1.14,0-2.09.95-2.09,2.09v19.19c0,1.14.95,2.09,2.09,2.09h43.7Z"/>
  <path d="M343.58,473.07c6.84,0,12.35,5.51,12.35,12.35v30.4c0,6.84-5.51,12.35-12.35,12.35h-31.35c-6.84,0-12.35-5.51-12.35-12.35v-30.4c0-6.84,5.51-12.35,12.35-12.35h31.35ZM312.22,483.33c-1.14,0-2.09.95-2.09,2.09v30.4c0,1.14.95,2.09,2.09,2.09h31.35c1.14,0,2.09-.95,2.09-2.09v-30.4c0-1.14-.95-2.09-2.09-2.09h-31.35Z"/>
  <path d="M420.24,485.42v42.75h-43.7c-6.84,0-12.35-5.51-12.35-12.35v-20.33h45.79v-10.07c0-1.14-.95-2.09-2.09-2.09h-43.7v-10.26h43.7c6.84,0,12.35,5.51,12.35,12.35ZM409.98,505.75h-35.53v10.07c0,1.14.95,2.09,2.09,2.09h33.44v-12.16Z"/>
  <path d="M471.35,473.07v10.26h-30.78c-1.14,0-2.09.95-2.09,2.09v42.75h-10.26v-42.75c0-6.84,5.51-12.35,12.35-12.35h30.78Z"/>
  <path d="M487.12,455.02v10.26h-10.26v-10.26h10.26ZM476.86,473.07h10.26v55.1h-10.26v-55.1Z"/>
  <path d="M551.43,485.42v42.75h-10.26v-42.75c0-1.14-.95-2.09-2.09-2.09h-31.35c-1.14,0-2.09.95-2.09,2.09v42.75h-10.26v-55.1h43.7c6.84,0,12.35,5.51,12.35,12.35Z"/>
  <path d="M571.76,459.77v10.26c0,6.17-4.47,11.21-10.26,12.16v-22.42h10.26Z"/>
  <path d="M261.69,573.77c6.84,0,12.35,5.51,12.35,12.35v43.7c0,6.84-5.51,12.35-12.35,12.35h-56.05v-68.4h56.05ZM263.78,586.12c0-1.14-.95-2.09-2.09-2.09h-43.7c-1.14,0-2.09.95-2.09,2.09v43.7c0,1.14.95,2.09,2.09,2.09h43.7c1.14,0,2.09-.95,2.09-2.09v-43.7Z"/>
  <path d="M347.57,584.03h-52.44v18.81h42.18v10.26h-42.18v18.81h52.44v10.26h-62.7v-68.4h62.7v10.26Z"/>
  <path d="M413.68,573.77c6.84,0,12.35,5.51,12.35,12.35v56.05h-10.26v-23.94h-47.88v23.94h-10.26v-56.05c0-6.84,5.51-12.35,12.35-12.35h43.7ZM415.77,607.97v-21.85c0-1.14-.95-2.09-2.09-2.09h-43.7c-1.14,0-2.09.95-2.09,2.09v21.85h47.88Z"/>
  <path d="M436.96,573.68h10.26v58.24h58.14v10.26h-68.4v-68.5Z"/>
  <path d="M578.79,590.11h-10.26v-3.99c0-1.14-.95-2.09-2.09-2.09h-43.7c-1.14,0-2.09.95-2.09,2.09v14.63c0,1.14.95,2.09,2.09,2.09h43.7c6.84,0,12.35,5.51,12.35,12.35v14.63c0,6.84-5.51,12.35-12.35,12.35h-43.7c-6.84,0-12.35-5.51-12.35-12.35v-3.99h10.26v3.99c0,1.14.95,2.09,2.09,2.09h43.7c1.14,0,2.09-.95,2.09-2.09v-14.63c0-1.14-.95-2.09-2.09-2.09h-43.7c-6.84,0-12.35-5.51-12.35-12.35v-14.63c0-6.84,5.51-12.35,12.35-12.35h43.7c6.84,0,12.35,5.51,12.35,12.35v3.99Z"/>
</svg>